<svg width="32" height="33" viewBox="0 0 32 33" fill="none" xmlns="http://www.w3.org/2000/svg">
<path d="M12.2902 0C11.478 0 10.699 0.322655 10.1247 0.896986C9.55034 1.47132 9.22769 2.25027 9.22769 3.0625C9.22769 3.87473 9.55034 4.65368 10.1247 5.22801C10.699 5.80234 11.478 6.125 12.2902 6.125H19.2902C20.1024 6.125 20.8814 5.80234 21.4557 5.22801C22.03 4.65368 22.3527 3.87473 22.3527 3.0625C22.3527 2.25027 22.03 1.47132 21.4557 0.896986C20.8814 0.322655 20.1024 0 19.2902 0H12.2902ZM1.55219 24.8587C0.0506879 18.8527 -0.700062 15.8515 0.874938 13.832C2.44994 11.8125 5.54744 11.8125 11.7389 11.8125H19.8414C26.0329 11.8125 29.1269 11.8125 30.7037 13.832C32.2804 15.8498 31.5297 18.8545 30.0282 24.8587C29.0727 28.679 28.5967 30.5883 27.1722 31.7013C25.7477 32.8125 23.7789 32.8125 19.8414 32.8125H11.7389C7.80144 32.8125 5.83269 32.8125 4.40819 31.7013C2.98369 30.5883 2.50594 28.679 1.55219 24.8587Z" fill="#CC1417"/>
<mask id="path-2-inside-1_98_23" fill="white">
<path d="M22.057 4.37846C22.2532 3.96854 22.3554 3.51995 22.356 3.06548C22.3566 2.61101 22.2556 2.16215 22.0605 1.75171C23.2558 1.76046 24.1885 1.81471 25.0198 2.14021C26.0142 2.52918 26.879 3.19023 27.5153 4.04771C28.1575 4.91221 28.4603 6.01996 28.875 7.54596L28.9555 7.84346L29.8533 13.0287C29.1375 12.5352 28.2153 12.2412 27.0218 12.0662L26.3918 8.41396C25.893 6.59396 25.7128 6.02171 25.4083 5.61221C25.0656 5.1504 24.5998 4.7944 24.0643 4.58496C23.6793 4.43446 23.2155 4.39246 22.057 4.37846ZM9.52175 1.75171C9.32662 2.16215 9.22566 2.61101 9.22626 3.06548C9.22687 3.51995 9.32902 3.96854 9.52525 4.37846C8.36675 4.39071 7.903 4.43446 7.518 4.58496C6.98244 4.7944 6.51667 5.1504 6.174 5.61221C5.8695 6.02171 5.68925 6.59396 5.19225 8.41221L4.5605 12.068C3.367 12.243 2.44475 12.5352 1.729 13.027L2.62675 7.84346L2.70725 7.54596C3.122 6.01996 3.42475 4.91221 4.067 4.04596C4.70377 3.18977 5.56854 2.52997 6.5625 2.14196C7.39375 1.81646 8.3265 1.76221 9.52175 1.75346"/>
</mask>
<path d="M22.057 4.37846C22.2532 3.96854 22.3554 3.51995 22.356 3.06548C22.3566 2.61101 22.2556 2.16215 22.0605 1.75171C23.2558 1.76046 24.1885 1.81471 25.0198 2.14021C26.0142 2.52918 26.879 3.19023 27.5153 4.04771C28.1575 4.91221 28.4603 6.01996 28.875 7.54596L28.9555 7.84346L29.8533 13.0287C29.1375 12.5352 28.2153 12.2412 27.0218 12.0662L26.3918 8.41396C25.893 6.59396 25.7128 6.02171 25.4083 5.61221C25.0656 5.1504 24.5998 4.7944 24.0643 4.58496C23.6793 4.43446 23.2155 4.39246 22.057 4.37846ZM9.52175 1.75171C9.32662 2.16215 9.22566 2.61101 9.22626 3.06548C9.22687 3.51995 9.32902 3.96854 9.52525 4.37846C8.36675 4.39071 7.903 4.43446 7.518 4.58496C6.98244 4.7944 6.51667 5.1504 6.174 5.61221C5.8695 6.02171 5.68925 6.59396 5.19225 8.41221L4.5605 12.068C3.367 12.243 2.44475 12.5352 1.729 13.027L2.62675 7.84346L2.70725 7.54596C3.122 6.01996 3.42475 4.91221 4.067 4.04596C4.70377 3.18977 5.56854 2.52997 6.5625 2.14196C7.39375 1.81646 8.3265 1.76221 9.52175 1.75346" fill="black"/>
<path d="M22.057 4.37846L21.155 3.94668L20.4787 5.35946L22.0449 5.37839L22.057 4.37846ZM22.0605 1.75171L22.0678 0.751736L20.4723 0.740055L21.1574 2.18109L22.0605 1.75171ZM25.0198 2.14021L24.6551 3.07137L24.6555 3.0715L25.0198 2.14021ZM27.5153 4.04771L26.7122 4.64361L26.7125 4.64406L27.5153 4.04771ZM28.875 7.54596L29.8403 7.28476L29.84 7.28368L28.875 7.54596ZM28.9555 7.84346L29.9408 7.67286L29.9329 7.6271L29.9208 7.58227L28.9555 7.84346ZM29.8533 13.0287L29.2856 13.852L31.2445 15.2026L30.8386 12.8581L29.8533 13.0287ZM27.0218 12.0662L26.0363 12.2362L26.1595 12.9505L26.8767 13.0556L27.0218 12.0662ZM26.3918 8.41396L27.3772 8.24397L27.369 8.19631L27.3562 8.14967L26.3918 8.41396ZM25.4083 5.61221L24.6052 6.2081L24.6058 6.20891L25.4083 5.61221ZM24.0643 4.58496L24.4285 3.65364L24.4283 3.65359L24.0643 4.58496ZM9.52525 4.37846L9.53583 5.3784L11.1047 5.36181L10.4272 3.94668L9.52525 4.37846ZM7.518 4.58496L7.15392 3.65359L7.15379 3.65364L7.518 4.58496ZM6.174 5.61221L6.97647 6.20891L6.97707 6.2081L6.174 5.61221ZM5.19225 8.41221L4.22764 8.14854L4.21501 8.19474L4.20686 8.24192L5.19225 8.41221ZM4.5605 12.068L4.70558 13.0574L5.42251 12.9523L5.5459 12.2382L4.5605 12.068ZM1.729 13.027L0.743673 12.8563L0.338532 15.1955L2.29528 13.8512L1.729 13.027ZM2.62675 7.84346L1.66147 7.58226L1.64934 7.62707L1.64142 7.67281L2.62675 7.84346ZM2.70725 7.54596L1.74226 7.28368L1.74197 7.28476L2.70725 7.54596ZM4.067 4.04596L3.26459 3.44919L3.26371 3.45038L4.067 4.04596ZM6.5625 2.14196L6.92615 3.0735L6.92712 3.07312L6.5625 2.14196ZM22.959 4.81024C23.2195 4.26593 23.3552 3.67027 23.356 3.06681L21.356 3.06415C21.3556 3.36962 21.2869 3.67115 21.155 3.94668L22.959 4.81024ZM23.356 3.06681C23.3568 2.46335 23.2227 1.86734 22.9636 1.32233L21.1574 2.18109C21.2885 2.45697 21.3564 2.75867 21.356 3.06415L23.356 3.06681ZM22.0532 2.75168C23.2521 2.76046 24.0147 2.82058 24.6551 3.07137L25.3844 1.20905C24.3623 0.808842 23.2594 0.760459 22.0678 0.751736L22.0532 2.75168ZM24.6555 3.0715C25.475 3.39208 26.1878 3.9369 26.7122 4.64361L28.3183 3.45181C27.5702 2.44356 26.5533 1.66629 25.384 1.20892L24.6555 3.0715ZM26.7125 4.64406C27.2188 5.32553 27.4799 6.22578 27.91 7.80823L29.84 7.28368C29.4406 5.81414 29.0962 4.49889 28.318 3.45136L26.7125 4.64406ZM27.9097 7.80715L27.9902 8.10465L29.9208 7.58227L29.8403 7.28477L27.9097 7.80715ZM27.9702 8.01406L28.8679 13.1993L30.8386 12.8581L29.9408 7.67286L27.9702 8.01406ZM30.4209 12.2054C29.5272 11.5892 28.4345 11.2627 27.1668 11.0768L26.8767 13.0556C27.9961 13.2198 28.7478 13.4812 29.2856 13.852L30.4209 12.2054ZM28.0072 11.8962L27.3772 8.24397L25.4063 8.58395L26.0363 12.2362L28.0072 11.8962ZM27.3562 8.14967C27.1087 7.24667 26.9305 6.61607 26.7725 6.15808C26.611 5.68981 26.4495 5.33664 26.2107 5.01551L24.6058 6.20891C24.6715 6.29728 24.7524 6.43499 24.8818 6.81021C25.0148 7.19573 25.176 7.76125 25.4273 8.67825L27.3562 8.14967ZM26.2113 5.01632C25.7568 4.40372 25.1389 3.93147 24.4285 3.65364L23.7 5.51628C24.0607 5.65733 24.3744 5.89708 24.6052 6.2081L26.2113 5.01632ZM24.4283 3.65359C23.8443 3.4253 23.1919 3.3921 22.0691 3.37853L22.0449 5.37839C23.2391 5.39282 23.5142 5.44362 23.7002 5.51633L24.4283 3.65359ZM8.61863 1.32233C8.35952 1.86733 8.22546 2.46335 8.22627 3.06681L10.2263 3.06415C10.2259 2.75867 10.2937 2.45697 10.4249 2.18109L8.61863 1.32233ZM8.22627 3.06681C8.22707 3.67027 8.36271 4.26593 8.62328 4.81024L10.4272 3.94668C10.2953 3.67115 10.2267 3.36962 10.2263 3.06415L8.22627 3.06681ZM9.51468 3.37851C8.38833 3.39042 7.73762 3.42542 7.15392 3.65359L7.88208 5.51633C8.06838 5.4435 8.34518 5.39099 9.53583 5.3784L9.51468 3.37851ZM7.15379 3.65364C6.44336 3.93147 5.8255 4.40372 5.37094 5.01632L6.97707 6.2081C7.20785 5.89708 7.52153 5.65733 7.88221 5.51628L7.15379 3.65364ZM5.37154 5.01551C5.13273 5.33667 4.97123 5.68988 4.80987 6.15815C4.65208 6.61608 4.47425 7.24634 4.22764 8.14854L6.15687 8.67588C6.40726 7.75983 6.56805 7.19484 6.70076 6.80971C6.82991 6.43491 6.91078 6.29725 6.97647 6.20891L5.37154 5.01551ZM4.20686 8.24192L3.57511 11.8977L5.5459 12.2382L6.17765 8.5825L4.20686 8.24192ZM4.41543 11.0785C3.14908 11.2642 2.05652 11.5887 1.16273 12.2027L2.29528 13.8512C2.83299 13.4817 3.58493 13.2217 4.70558 13.0574L4.41543 11.0785ZM2.71434 13.1976L3.61209 8.01411L1.64142 7.67281L0.743673 12.8563L2.71434 13.1976ZM3.59204 8.10465L3.67254 7.80715L1.74197 7.28476L1.66147 7.58226L3.59204 8.10465ZM3.67225 7.80823C4.10225 6.22611 4.36347 5.32514 4.8703 4.64154L3.26371 3.45038C2.48604 4.49927 2.14176 5.8138 1.74226 7.28368L3.67225 7.80823ZM4.86942 4.64273C5.39422 3.93708 6.10694 3.39329 6.92615 3.0735L6.19886 1.21042C5.03013 1.66666 4.01331 2.44246 3.26459 3.44919L4.86942 4.64273ZM6.92712 3.07312C7.56758 2.82233 8.33011 2.76221 9.52907 2.75343L9.51443 0.753486C8.3229 0.762209 7.21993 0.810592 6.19788 1.2108L6.92712 3.07312Z" fill="black" mask="url(#path-2-inside-1_98_23)"/>
</svg>
