<svg width="28" height="32" viewBox="0 0 28 32" fill="none" xmlns="http://www.w3.org/2000/svg">
<g clip-path="url(#clip0_27_112)">
<path d="M19.3033 13.3033C17.8968 14.7098 15.9891 15.5 14 15.5C12.0109 15.5 10.1032 14.7098 8.6967 13.3033C7.29018 11.8968 6.5 9.98912 6.5 8C6.5 6.01088 7.29018 4.10322 8.6967 2.6967C10.1032 1.29018 12.0109 0.5 14 0.5C15.9891 0.5 17.8968 1.29018 19.3033 2.6967C20.7098 4.10322 21.5 6.01088 21.5 8C21.5 9.98912 20.7098 11.8968 19.3033 13.3033ZM0.5 30.1437C0.5 24.2636 5.26364 19.5 11.1438 19.5H16.8563C22.7364 19.5 27.5 24.2636 27.5 30.1437C27.5 30.8926 26.8926 31.5 26.1437 31.5H1.85625C1.10739 31.5 0.5 30.8926 0.5 30.1437Z" fill="#CC1417" stroke="white"/>
</g>
<defs>
<clipPath id="clip0_27_112">
<rect width="28" height="32" fill="white"/>
</clipPath>
</defs>
</svg>
