<svg width="38" height="51" viewBox="0 0 38 51" fill="none" xmlns="http://www.w3.org/2000/svg">
<path d="M1.29159 3.375V3.37342C1.29117 3.10734 1.36368 2.84623 1.50124 2.61847C1.63879 2.39071 1.83614 2.205 2.07183 2.08152C2.30753 1.95804 2.57256 1.90151 2.83812 1.91808C3.10368 1.93465 3.35963 2.02368 3.57815 2.1755L3.57951 2.17644L35.537 24.3008C35.8818 24.5401 36.1008 24.9848 36.1008 25.5021C36.1008 26.0195 35.8819 26.4629 35.538 26.7009L35.5378 26.701L3.58285 48.8237C3.58223 48.8241 3.58162 48.8246 3.581 48.825C3.36198 48.9748 3.10633 49.0623 2.84141 49.078C2.57575 49.0937 2.31081 49.0367 2.07513 48.9131C1.83945 48.7895 1.64195 48.6039 1.50389 48.3764C1.36601 48.1492 1.29262 47.8887 1.29159 47.6229C1.29159 47.6226 1.29159 47.6222 1.29159 47.6219L1.29159 3.375Z" fill="white" stroke="black" stroke-width="2"/>
</svg>
